<svg xmlns="http://www.w3.org/2000/svg" width="176.27" height="35" viewBox="0 0 176.27 35"><rect class="svg__rect" x="0" y="0" width="112.31" height="35" fill="#FF0200"/><rect class="svg__rect" x="110.31" y="0" width="65.96000000000001" height="35" fill="#000000"/><path class="svg__text" d="M16.67 22L14.22 22L14.22 13.47L16.74 13.47Q17.87 13.47 18.74 13.97Q19.62 14.48 20.10 15.40Q20.58 16.33 20.58 17.52L20.58 17.52L20.58 17.95Q20.58 19.16 20.10 20.08Q19.61 21.00 18.72 21.50Q17.83 22 16.67 22L16.67 22ZM15.70 14.66L15.70 20.82L16.67 20.82Q17.83 20.82 18.46 20.09Q19.08 19.36 19.09 17.99L19.09 17.99L19.09 17.52Q19.09 16.13 18.49 15.40Q17.89 14.66 16.74 14.66L16.74 14.66L15.70 14.66ZM24.78 18.00L24.78 18.00L24.78 17.52Q24.78 16.28 25.22 15.32Q25.66 14.37 26.47 13.86Q27.27 13.35 28.31 13.35Q29.36 13.35 30.16 13.85Q30.97 14.35 31.41 15.29Q31.85 16.23 31.85 17.48L31.85 17.48L31.85 17.96Q31.85 19.21 31.42 20.16Q30.99 21.10 30.18 21.61Q29.38 22.12 28.33 22.12L28.33 22.12Q27.29 22.12 26.48 21.61Q25.67 21.10 25.22 20.17Q24.78 19.23 24.78 18.00ZM26.26 17.46L26.26 17.96Q26.26 19.36 26.81 20.13Q27.35 20.90 28.33 20.90L28.33 20.90Q29.31 20.90 29.84 20.15Q30.37 19.40 30.37 17.96L30.37 17.96L30.37 17.51Q30.37 16.09 29.84 15.34Q29.30 14.58 28.31 14.58L28.31 14.58Q27.35 14.58 26.81 15.33Q26.27 16.09 26.26 17.46L26.26 17.46ZM37.70 22L35.73 13.47L37.20 13.47L38.53 19.88L40.16 13.47L41.40 13.47L43.01 19.89L44.32 13.47L45.79 13.47L43.82 22L42.41 22L40.78 15.77L39.13 22L37.70 22ZM51.35 22L49.87 22L49.87 13.47L51.35 13.47L55.16 19.54L55.16 13.47L56.63 13.47L56.63 22L55.15 22L51.35 15.95L51.35 22ZM66.73 22L61.37 22L61.37 13.47L62.86 13.47L62.86 20.82L66.73 20.82L66.73 22ZM70.58 18.00L70.58 18.00L70.58 17.52Q70.58 16.28 71.03 15.32Q71.47 14.37 72.27 13.86Q73.08 13.35 74.12 13.35Q75.17 13.35 75.97 13.85Q76.78 14.35 77.22 15.29Q77.66 16.23 77.66 17.48L77.66 17.48L77.66 17.96Q77.66 19.21 77.23 20.16Q76.80 21.10 75.99 21.61Q75.18 22.12 74.14 22.12L74.14 22.12Q73.10 22.12 72.29 21.61Q71.47 21.10 71.03 20.17Q70.59 19.23 70.58 18.00ZM72.07 17.46L72.07 17.96Q72.07 19.36 72.61 20.13Q73.16 20.90 74.14 20.90L74.14 20.90Q75.12 20.90 75.65 20.15Q76.18 19.40 76.18 17.96L76.18 17.96L76.18 17.51Q76.18 16.09 75.64 15.34Q75.11 14.58 74.12 14.58L74.12 14.58Q73.16 14.58 72.62 15.33Q72.08 16.09 72.07 17.46L72.07 17.46ZM84.58 22L82.13 22L82.13 13.47L84.65 13.47Q85.78 13.47 86.65 13.97Q87.53 14.48 88.01 15.40Q88.49 16.33 88.49 17.52L88.49 17.52L88.49 17.95Q88.49 19.16 88.01 20.08Q87.52 21.00 86.63 21.50Q85.74 22 84.58 22L84.58 22ZM83.61 14.66L83.61 20.82L84.58 20.82Q85.74 20.82 86.37 20.09Q86.99 19.36 87.00 17.99L87.00 17.99L87.00 17.52Q87.00 16.13 86.40 15.40Q85.80 14.66 84.65 14.66L84.65 14.66L83.61 14.66ZM98.53 22L92.96 22L92.96 13.47L98.49 13.47L98.49 14.66L94.44 14.66L94.44 17.02L97.94 17.02L97.94 18.19L94.44 18.19L94.44 20.82L98.53 20.82L98.53 22Z" fill="#FFFFFF"/><path class="svg__text" d="M126.83 22L124.50 22L124.50 13.60L126.45 13.60L130.16 18.07L130.16 13.60L132.49 13.60L132.49 22L130.54 22L126.83 17.52L126.83 22ZM137.22 17.80L137.22 17.80Q137.22 16.55 137.83 15.55Q138.43 14.56 139.49 14.00Q140.56 13.43 141.89 13.43L141.89 13.43Q143.22 13.43 144.28 14.00Q145.35 14.56 145.95 15.55Q146.56 16.55 146.56 17.80L146.56 17.80Q146.56 19.05 145.95 20.04Q145.35 21.04 144.28 21.60Q143.22 22.17 141.89 22.17L141.89 22.17Q140.56 22.17 139.49 21.60Q138.43 21.04 137.83 20.04Q137.22 19.05 137.22 17.80ZM139.62 17.80L139.62 17.80Q139.62 18.51 139.92 19.05Q140.22 19.60 140.74 19.90Q141.26 20.20 141.89 20.20L141.89 20.20Q142.53 20.20 143.04 19.90Q143.56 19.60 143.86 19.05Q144.16 18.51 144.16 17.80L144.16 17.80Q144.16 17.09 143.86 16.54Q143.56 16 143.04 15.70Q142.53 15.40 141.89 15.40L141.89 15.40Q141.25 15.40 140.74 15.70Q140.22 16 139.92 16.54Q139.62 17.09 139.62 17.80ZM153.37 22L150.64 13.60L153.09 13.60L154.78 18.96L156.55 13.60L158.74 13.60L160.43 19.01L162.20 13.60L164.46 13.60L161.74 22L159.20 22L157.59 16.89L155.91 22L153.37 22Z" fill="#FFFFFF" x="123.31"/></svg>